<?xml version="1.0" encoding="utf-8"?>
<!-- Generator: Adobe Illustrator 21.0.0, SVG Export Plug-In . SVG Version: 6.00 Build 0)  -->
<svg version="1.1" id="Layer_1" xmlns="http://www.w3.org/2000/svg" xmlns:xlink="http://www.w3.org/1999/xlink" x="0px" y="0px"
	 width="45px" height="45px" viewBox="0 0 45 45" style="enable-background:new 0 0 45 45;" xml:space="preserve">
<style type="text/css">
	.st0{fill:#EA8EC3;}
	.st1{fill:#6B569E;}
</style>
<g>
	<g>
		<rect x="8.8" y="27.6" class="st0" width="8.5" height="8.5"/>
		<path class="st1" d="M16.8,28.1v7.5H9.3v-7.5L16.8,28.1 M17.8,27.1H8.3v9.5h9.5V27.1L17.8,27.1z"/>
	</g>
	<g>
		<g>
			<rect x="8.8" y="8.8" class="st0" width="8.5" height="8.5"/>
			<path class="st1" d="M16.8,9.3v7.5H9.3V9.3H16.8 M17.8,8.3H8.3v9.5h9.5V8.3L17.8,8.3z"/>
		</g>
	</g>
	<g>
		<rect x="27.5" y="8.8" class="st0" width="8.5" height="8.5"/>
		<path class="st1" d="M35.6,9.3v7.5h-7.5V9.3H35.6 M36.6,8.3h-9.5v9.5h9.5V8.3L36.6,8.3z"/>
	</g>
	<g>
		<rect x="27.5" y="27.6" class="st0" width="8.5" height="8.5"/>
		<path class="st1" d="M35.6,28.1v7.5h-7.5v-7.5L35.6,28.1 M36.6,27.1h-9.5v9.5h9.5V27.1L36.6,27.1z"/>
	</g>
</g>
</svg>
