<?xml version="1.0" encoding="utf-8"?>
<!-- Generator: Adobe Illustrator 21.0.0, SVG Export Plug-In . SVG Version: 6.00 Build 0)  -->
<svg version="1.1" id="Layer_1" xmlns="http://www.w3.org/2000/svg" xmlns:xlink="http://www.w3.org/1999/xlink" x="0px" y="0px"
	 width="67.4px" height="33.2px" viewBox="0 0 67.4 33.2" style="enable-background:new 0 0 67.4 33.2;" xml:space="preserve">
<style type="text/css">
	.st0{fill:#EA8EC3;}
	.st1{fill:#EA8EC3;stroke:#966FD6;stroke-miterlimit:10;}
	.st2{fill:#FFFFFF;}
	.st3{display:none;}
	.st4{display:inline;fill:#F5F5F5;stroke:#FFFFFF;stroke-miterlimit:10;}
	.st5{display:inline;}
	.st6{fill:#929493;}
</style>
<g id="Switcher_Key">
	<g>
		<path class="st0" d="M33.3,16.6c0,9.2-7.4,16.6-16.6,16.6S0.1,25.8,0.1,16.6S7.5,0.1,16.7,0.1S33.3,7.5,33.3,16.6z"/>
	</g>
	<g>
		<path class="st1" d="M30.9,16.6c0,7.8-6.3,14.2-14.2,14.2S2.5,24.5,2.5,16.6S8.9,2.5,16.7,2.5S30.9,8.8,30.9,16.6z"/>
		<g>
			<polygon class="st2" points="14.5,16.6 11.9,16.6 11.9,13.2 16.6,13.2 16.6,14.3 18.2,14.3 18.2,11.6 10.4,11.6 10.4,18.1 
				14.5,18.1 			"/>
			<path class="st2" d="M15.2,14.9v6.7h7.9v-6.7C23.1,14.9,15.2,14.9,15.2,14.9z M21.5,20h-4.8v-3.4h4.8V20z"/>
		</g>
	</g>
	<g id="Switcher_PRessed_1_" class="st3">
		<path class="st4" d="M30.9,16.6c0,7.8-6.3,14.2-14.2,14.2S2.5,24.5,2.5,16.6S8.9,2.5,16.7,2.5S30.9,8.8,30.9,16.6z"/>
		<g class="st5">
			<polygon class="st6" points="14.5,16.6 11.9,16.6 11.9,13.2 16.6,13.2 16.6,14.3 18.2,14.3 18.2,11.6 10.4,11.6 10.4,18.1 
				14.5,18.1 			"/>
			<path class="st6" d="M15.2,14.9v6.7h7.9v-6.7C23.1,14.9,15.2,14.9,15.2,14.9z M21.5,20h-4.8v-3.4h4.8V20z"/>
		</g>
	</g>
</g>
<g id="Menu_Key_1_">
	<g>
		<path class="st0" d="M67.2,16.6c0,9.2-7.4,16.6-16.6,16.6S34,25.8,34,16.6S41.4,0.1,50.6,0.1S67.2,7.5,67.2,16.6z"/>
	</g>
	<g>
		<path class="st1" d="M64.8,16.6c0,7.8-6.3,14.2-14.2,14.2s-14.2-6.3-14.2-14.2S42.7,2.4,50.6,2.4S64.8,8.8,64.8,16.6z"/>
		<g>
			<rect x="44.2" y="12.5" class="st2" width="12.7" height="1.4"/>
			<rect x="44.2" y="16" class="st2" width="12.7" height="1.4"/>
			<rect x="44.2" y="19.4" class="st2" width="12.7" height="1.3"/>
		</g>
	</g>
	<g id="Menu_Pressed_2_" class="st3">
		<path class="st4" d="M64.8,16.6c0,7.8-6.3,14.2-14.2,14.2s-14.2-6.3-14.2-14.2S42.7,2.4,50.6,2.4S64.8,8.8,64.8,16.6z"/>
		<g class="st5">
			<rect x="44.2" y="12.5" class="st6" width="12.7" height="1.4"/>
			<rect x="44.2" y="16" class="st6" width="12.7" height="1.4"/>
			<rect x="44.2" y="19.4" class="st6" width="12.7" height="1.3"/>
		</g>
	</g>
</g>
</svg>
